<svg width="120" height="121" viewBox="0 0 120 121" fill="none" xmlns="http://www.w3.org/2000/svg">
<mask id="mask0_193_2919" style="mask-type:alpha" maskUnits="userSpaceOnUse" x="0" y="0" width="120" height="121">
<rect y="0.5" width="120" height="120" fill="#D9D9D9"/>
</mask>
<g mask="url(#mask0_193_2919)">
<path d="M26.5387 103C24.0129 103 21.875 102.125 20.125 100.375C18.375 98.625 17.5 96.4871 17.5 93.9613V27.0387C17.5 24.5129 18.375 22.375 20.125 20.625C21.875 18.875 24.0129 18 26.5387 18H93.4613C95.9871 18 98.125 18.875 99.875 20.625C101.625 22.375 102.5 24.5129 102.5 27.0387V93.9613C102.5 96.4871 101.625 98.625 99.875 100.375C98.125 102.125 95.9871 103 93.4613 103H26.5387ZM33.75 84.25H86.6338L70.1925 62.3275L56.1538 80.5962L46.1538 67.8075L33.75 84.25ZM42.5 49.25C44.2308 49.25 45.705 48.6408 46.9225 47.4225C48.1408 46.205 48.75 44.7308 48.75 43C48.75 41.2692 48.1408 39.795 46.9225 38.5775C45.705 37.3592 44.2308 36.75 42.5 36.75C40.7692 36.75 39.295 37.3592 38.0775 38.5775C36.8592 39.795 36.25 41.2692 36.25 43C36.25 44.7308 36.8592 46.205 38.0775 47.4225C39.295 48.6408 40.7692 49.25 42.5 49.25Z" fill="#101010" fill-opacity="0.1"/>
</g>
</svg>
