<svg width="112" height="32" viewBox="0 0 112 32" fill="none" xmlns="http://www.w3.org/2000/svg">
<path d="M70.5373 28.6723H68.2495L72.4149 16.8406H75.0609L79.232 28.6723H76.9442L73.7841 19.267H73.6916L70.5373 28.6723ZM70.6124 24.0332H76.8518V25.7549H70.6124V24.0332Z" fill="#101010"/>
<path d="M60.3345 28.6723V16.8406H62.4778V26.8756H67.6889V28.6723H60.3345Z" fill="#101010"/>
<path d="M50.0503 18.6373V16.8406H59.4903V18.6373H55.8333V28.6723H53.7073V18.6373H50.0503Z" fill="#101010"/>
<path d="M44.2921 28.6723H40.2827V16.8406H44.373C45.5477 16.8406 46.5568 17.0775 47.4002 17.5512C48.2476 18.0211 48.8985 18.697 49.3529 19.579C49.8074 20.461 50.0347 21.5163 50.0347 22.7449C50.0347 23.9774 49.8055 25.0366 49.3472 25.9224C48.8927 26.8082 48.236 27.488 47.3771 27.9617C46.5221 28.4355 45.4938 28.6723 44.2921 28.6723ZM42.4261 26.8179H44.1881C45.0123 26.8179 45.6998 26.6677 46.2506 26.3672C46.8013 26.063 47.2154 25.6104 47.4927 25.0096C47.77 24.4049 47.9086 23.65 47.9086 22.7449C47.9086 21.8398 47.77 21.0888 47.4927 20.4918C47.2154 19.891 46.8052 19.4423 46.2621 19.1457C45.7229 18.8453 45.0528 18.6951 44.2517 18.6951H42.4261V26.8179Z" fill="#101010"/>
<path d="M27.939 32V19.7986H29.9957V21.266H30.117C30.2248 21.0503 30.377 20.8211 30.5734 20.5785C30.7698 20.332 31.0356 20.1221 31.3706 19.9488C31.7057 19.7716 32.1332 19.683 32.6532 19.683C33.3387 19.683 33.9569 19.8583 34.5077 20.2087C35.0623 20.5554 35.5013 21.0695 35.8249 21.7513C36.1522 22.4291 36.3159 23.261 36.3159 24.247C36.3159 25.2214 36.1561 26.0495 35.8364 26.7312C35.5167 27.4129 35.0815 27.9329 34.5308 28.2911C33.98 28.6493 33.3561 28.8283 32.6589 28.8283C32.1506 28.8283 31.7288 28.7436 31.3937 28.5741C31.0587 28.4047 30.7891 28.2006 30.5849 27.9618C30.3847 27.7191 30.2287 27.49 30.117 27.2743H30.0303V32H27.939ZM29.9899 24.2355C29.9899 24.8093 30.0708 25.3119 30.2325 25.7433C30.3981 26.1747 30.635 26.5117 30.9431 26.7543C31.2551 26.9931 31.6325 27.1125 32.0755 27.1125C32.5376 27.1125 32.9247 26.9893 33.2367 26.7428C33.5486 26.4924 33.7836 26.1516 33.9415 25.7202C34.1033 25.285 34.1841 24.7901 34.1841 24.2355C34.1841 23.6847 34.1052 23.1956 33.9473 22.768C33.7894 22.3405 33.5544 22.0055 33.2424 21.7628C32.9305 21.5202 32.5415 21.3988 32.0755 21.3988C31.6287 21.3988 31.2493 21.5163 30.9373 21.7513C30.6254 21.9862 30.3885 22.3155 30.2267 22.7392C30.0688 23.1628 29.9899 23.6616 29.9899 24.2355Z" fill="#101010"/>
<path d="M22.8883 28.8457C22.0217 28.8457 21.2706 28.655 20.6351 28.2737C19.9997 27.8924 19.5067 27.359 19.1562 26.6734C18.8095 25.9879 18.6362 25.1868 18.6362 24.2701C18.6362 23.3535 18.8095 22.5504 19.1562 21.861C19.5067 21.1716 19.9997 20.6363 20.6351 20.255C21.2706 19.8737 22.0217 19.683 22.8883 19.683C23.7548 19.683 24.5059 19.8737 25.1414 20.255C25.7769 20.6363 26.2679 21.1716 26.6146 21.861C26.9651 22.5504 27.1403 23.3535 27.1403 24.2701C27.1403 25.1868 26.9651 25.9879 26.6146 26.6734C26.2679 27.359 25.7769 27.8924 25.1414 28.2737C24.5059 28.655 23.7548 28.8457 22.8883 28.8457ZM22.8998 27.1703C23.3697 27.1703 23.7625 27.0413 24.0784 26.7832C24.3942 26.5213 24.6291 26.1708 24.7832 25.7318C24.9411 25.2927 25.0201 24.8036 25.0201 24.2643C25.0201 23.7213 24.9411 23.2302 24.7832 22.7912C24.6291 22.3482 24.3942 21.9958 24.0784 21.7339C23.7625 21.472 23.3697 21.3411 22.8998 21.3411C22.4184 21.3411 22.0178 21.472 21.6982 21.7339C21.3823 21.9958 21.1455 22.3482 20.9876 22.7912C20.8335 23.2302 20.7565 23.7213 20.7565 24.2643C20.7565 24.8036 20.8335 25.2927 20.9876 25.7318C21.1455 26.1708 21.3823 26.5213 21.6982 26.7832C22.0178 27.0413 22.4184 27.1703 22.8998 27.1703Z" fill="#101010"/>
<path d="M12.1075 23.4729V28.6723H10.0161V16.8406H12.0612V21.3064H12.1652C12.3732 20.8057 12.6948 20.4109 13.13 20.1221C13.5691 19.8294 14.1276 19.683 14.8054 19.683C15.4217 19.683 15.9589 19.812 16.4173 20.0701C16.8756 20.3281 17.2299 20.7056 17.4803 21.2024C17.7345 21.6992 17.8616 22.3059 17.8616 23.0222V28.6723H15.7702V23.3458C15.7702 22.7488 15.6162 22.2847 15.308 21.9534C15.0038 21.6184 14.5763 21.4508 14.0255 21.4508C13.6558 21.4508 13.3245 21.5317 13.0318 21.6935C12.743 21.8514 12.5157 22.0805 12.3501 22.381C12.1883 22.6814 12.1075 23.0453 12.1075 23.4729Z" fill="#101010"/>
<path d="M6.94984 20.0932C6.89592 19.5886 6.66868 19.1958 6.26813 18.9146C5.87143 18.6335 5.35533 18.4929 4.71984 18.4929C4.27306 18.4929 3.88984 18.5603 3.57017 18.6951C3.2505 18.8299 3.00593 19.0128 2.83646 19.2439C2.667 19.475 2.58034 19.7388 2.57649 20.0354C2.57649 20.2819 2.63233 20.4956 2.74403 20.6767C2.85957 20.8577 3.01556 21.0117 3.21198 21.1388C3.40841 21.2621 3.62602 21.3661 3.86481 21.4508C4.1036 21.5355 4.34432 21.6068 4.58696 21.6646L5.69619 21.9419C6.14296 22.0459 6.5724 22.1864 6.9845 22.3636C7.40046 22.5408 7.77213 22.7642 8.09951 23.0338C8.43073 23.3034 8.69263 23.6288 8.88521 24.0101C9.07778 24.3914 9.17407 24.8382 9.17407 25.3504C9.17407 26.0437 8.9969 26.6542 8.64256 27.1818C8.28823 27.7056 7.77598 28.1158 7.10583 28.4124C6.43952 28.7051 5.63264 28.8514 4.68517 28.8514C3.76467 28.8514 2.96549 28.7089 2.28763 28.4239C1.61362 28.1389 1.08597 27.7229 0.70467 27.176C0.327225 26.6291 0.123097 25.9628 0.0922852 25.1771H2.20097C2.23178 25.5892 2.35888 25.932 2.58227 26.2055C2.80565 26.4789 3.09644 26.683 3.45462 26.8178C3.81666 26.9527 4.22107 27.0201 4.66784 27.0201C5.13387 27.0201 5.54213 26.9507 5.89261 26.8121C6.24695 26.6696 6.52425 26.4731 6.72453 26.2228C6.92481 25.9686 7.02687 25.672 7.03072 25.3331C7.02687 25.025 6.93636 24.7708 6.75919 24.5705C6.58202 24.3664 6.3336 24.1969 6.01393 24.0621C5.69811 23.9235 5.32837 23.8002 4.90471 23.6924L3.55862 23.3457C2.58419 23.0954 1.8139 22.716 1.24773 22.2076C0.685413 21.6954 0.404255 21.0156 0.404255 20.1683C0.404255 19.4712 0.592977 18.8607 0.970422 18.3369C1.35172 17.8131 1.86974 17.4068 2.52449 17.1179C3.17924 16.8252 3.92065 16.6788 4.74872 16.6788C5.58834 16.6788 6.32398 16.8252 6.95562 17.1179C7.59111 17.4068 8.08988 17.8092 8.45192 18.3253C8.81396 18.8376 9.00075 19.4269 9.01231 20.0932H6.94984Z" fill="#101010"/>
<path d="M105 15.7314C104.715 15.7314 104.451 15.7083 104.208 15.6621C103.97 15.6197 103.779 15.5696 103.636 15.5119L104.122 13.8827C104.426 13.9713 104.697 14.0136 104.936 14.0098C105.175 14.0059 105.385 13.9308 105.566 13.7845C105.751 13.642 105.907 13.4032 106.034 13.0681L106.213 12.5886L102.995 3.52991H105.214L107.259 10.2315H107.351L109.402 3.52991H111.626L108.073 13.4783C107.908 13.9482 107.688 14.3506 107.415 14.6857C107.141 15.0246 106.806 15.2827 106.409 15.4599C106.017 15.6409 105.547 15.7314 105 15.7314Z" fill="#101010"/>
<path d="M97.9551 12.4037V3.5299H99.9829V5.00887H100.075C100.237 4.49662 100.514 4.10184 100.907 3.82454C101.304 3.54338 101.756 3.4028 102.265 3.4028C102.38 3.4028 102.509 3.40858 102.652 3.42013C102.798 3.42784 102.92 3.44132 103.016 3.46057V5.38439C102.927 5.35357 102.787 5.32661 102.594 5.30351C102.405 5.27655 102.223 5.26307 102.045 5.26307C101.664 5.26307 101.321 5.34587 101.017 5.51149C100.717 5.67325 100.48 5.89856 100.306 6.18742C100.133 6.47628 100.046 6.80943 100.046 7.18688V12.4037H97.9551Z" fill="#101010"/>
<path d="M93.2161 12.577C92.3264 12.577 91.558 12.3922 90.9109 12.0224C90.2678 11.6488 89.7728 11.1212 89.4262 10.4395C89.0796 9.7539 88.9062 8.94701 88.9062 8.01881C88.9062 7.10601 89.0796 6.3049 89.4262 5.61549C89.7767 4.92222 90.2658 4.38301 90.8936 3.99787C91.5214 3.60887 92.259 3.41437 93.1063 3.41437C93.6532 3.41437 94.1693 3.50295 94.6546 3.68012C95.1437 3.85344 95.5751 4.12304 95.9487 4.48893C96.3261 4.85482 96.6227 5.32085 96.8384 5.88702C97.0541 6.44933 97.1619 7.11949 97.1619 7.89749V8.53876H89.8884V7.12912H95.1572C95.1533 6.72856 95.0667 6.3723 94.8972 6.06033C94.7278 5.74451 94.4909 5.49609 94.1866 5.31507C93.8862 5.13405 93.5357 5.04354 93.1352 5.04354C92.7077 5.04354 92.3321 5.14753 92.0086 5.35551C91.6851 5.55964 91.4328 5.82924 91.2518 6.16432C91.0746 6.49555 90.9841 6.85951 90.9803 7.25622V8.48676C90.9803 9.00286 91.0746 9.44578 91.2634 9.81552C91.4521 10.1814 91.7159 10.4626 92.0548 10.659C92.3938 10.8516 92.7905 10.9479 93.2449 10.9479C93.5492 10.9479 93.8246 10.9055 94.0711 10.8208C94.3176 10.7322 94.5313 10.6031 94.7124 10.4337C94.8934 10.2642 95.0301 10.0543 95.1225 9.80397L97.0752 10.0235C96.952 10.5396 96.717 10.9902 96.3704 11.3754C96.0276 11.7567 95.5886 12.0532 95.0532 12.2651C94.5179 12.473 93.9055 12.577 93.2161 12.577Z" fill="#101010"/>
<path d="M83.3093 12.5597C82.6122 12.5597 81.9883 12.3806 81.4375 12.0224C80.8867 11.6642 80.4515 11.1443 80.1319 10.4626C79.8122 9.78084 79.6523 8.95278 79.6523 7.97835C79.6523 6.99237 79.8141 6.16045 80.1376 5.48259C80.465 4.80088 80.906 4.28671 81.4606 3.94008C82.0152 3.58959 82.6334 3.41435 83.3151 3.41435C83.8351 3.41435 84.2626 3.50293 84.5976 3.6801C84.9327 3.85342 85.1985 4.06332 85.3949 4.30982C85.5913 4.55246 85.7435 4.78163 85.8513 4.99731H85.938V0.57196H88.0351V12.4037H85.9784V11.0056H85.8513C85.7435 11.2213 85.5875 11.4505 85.3833 11.6931C85.1792 11.9319 84.9096 12.136 84.5745 12.3055C84.2395 12.475 83.8177 12.5597 83.3093 12.5597ZM83.8928 10.8439C84.3357 10.8439 84.7132 10.7245 85.0252 10.4857C85.3371 10.243 85.574 9.90602 85.7358 9.47465C85.8975 9.04329 85.9784 8.54067 85.9784 7.9668C85.9784 7.39293 85.8975 6.89416 85.7358 6.4705C85.5778 6.04684 85.3429 5.71753 85.0309 5.48259C84.7228 5.24765 84.3434 5.13018 83.8928 5.13018C83.4268 5.13018 83.0378 5.25151 82.7258 5.49415C82.4139 5.73679 82.1789 6.07187 82.021 6.49938C81.8631 6.9269 81.7841 7.41604 81.7841 7.9668C81.7841 8.52141 81.8631 9.01632 82.021 9.45154C82.1828 9.88291 82.4196 10.2238 82.7316 10.4741C83.0474 10.7206 83.4345 10.8439 83.8928 10.8439Z" fill="#101010"/>
<path d="M76.7511 12.4037V3.52991H78.8425V12.4037H76.7511ZM77.8026 2.27048C77.4713 2.27048 77.1863 2.16071 76.9475 1.94118C76.7088 1.71779 76.5894 1.45011 76.5894 1.13814C76.5894 0.822321 76.7088 0.554643 76.9475 0.335109C77.1863 0.111723 77.4713 3.05176e-05 77.8026 3.05176e-05C78.1377 3.05176e-05 78.4227 0.111723 78.6576 0.335109C78.8964 0.554643 79.0158 0.822321 79.0158 1.13814C79.0158 1.45011 78.8964 1.71779 78.6576 1.94118C78.4227 2.16071 78.1377 2.27048 77.8026 2.27048Z" fill="#101010"/>
<path d="M71.6998 12.577C70.8332 12.577 70.0822 12.3864 69.4467 12.0051C68.8112 11.6238 68.3182 11.0904 67.9677 10.4048C67.6211 9.71924 67.4478 8.91813 67.4478 8.00148C67.4478 7.08482 67.6211 6.28179 67.9677 5.59238C68.3182 4.90296 68.8112 4.36761 69.4467 3.98631C70.0822 3.60502 70.8332 3.41437 71.6998 3.41437C72.5664 3.41437 73.3174 3.60502 73.9529 3.98631C74.5884 4.36761 75.0795 4.90296 75.4261 5.59238C75.7766 6.28179 75.9518 7.08482 75.9518 8.00148C75.9518 8.91813 75.7766 9.71924 75.4261 10.4048C75.0795 11.0904 74.5884 11.6238 73.9529 12.0051C73.3174 12.3864 72.5664 12.577 71.6998 12.577ZM71.7113 10.9016C72.1812 10.9016 72.5741 10.7726 72.8899 10.5146C73.2057 10.2527 73.4407 9.90218 73.5947 9.46311C73.7526 9.02404 73.8316 8.53491 73.8316 7.9957C73.8316 7.45264 73.7526 6.96158 73.5947 6.52251C73.4407 6.07959 73.2057 5.72718 72.8899 5.46528C72.5741 5.20338 72.1812 5.07243 71.7113 5.07243C71.2299 5.07243 70.8294 5.20338 70.5097 5.46528C70.1939 5.72718 69.957 6.07959 69.7991 6.52251C69.645 6.96158 69.568 7.45264 69.568 7.9957C69.568 8.53491 69.645 9.02404 69.7991 9.46311C69.957 9.90218 70.1939 10.2527 70.5097 10.5146C70.8294 10.7726 71.2299 10.9016 71.7113 10.9016Z" fill="#101010"/>
<path d="M62.7207 12.4037V3.5299H64.7485V5.00887H64.8409C65.0027 4.49662 65.28 4.10184 65.6729 3.82454C66.0696 3.54338 66.5221 3.4028 67.0305 3.4028C67.1461 3.4028 67.2751 3.40858 67.4176 3.42013C67.5639 3.42784 67.6853 3.44132 67.7815 3.46057V5.38439C67.693 5.35357 67.5524 5.32661 67.3598 5.30351C67.1711 5.27655 66.9881 5.26307 66.811 5.26307C66.4297 5.26307 66.0869 5.34587 65.7826 5.51149C65.4822 5.67325 65.2453 5.89856 65.072 6.18742C64.8987 6.47628 64.8121 6.80943 64.8121 7.18688V12.4037H62.7207Z" fill="#101010"/>
<path d="M53.5415 12.4037V0.57196H55.6329V4.99731H55.7195C55.8274 4.78163 55.9795 4.55246 56.1759 4.30982C56.3723 4.06332 56.6381 3.85342 56.9732 3.6801C57.3082 3.50293 57.7358 3.41435 58.2557 3.41435C58.9413 3.41435 59.5594 3.58959 60.1102 3.94008C60.6648 4.28671 61.1039 4.80088 61.4274 5.48259C61.7548 6.16045 61.9185 6.99237 61.9185 7.97835C61.9185 8.95278 61.7586 9.78084 61.439 10.4626C61.1193 11.1443 60.6841 11.6642 60.1333 12.0224C59.5825 12.3806 58.9586 12.5597 58.2615 12.5597C57.7531 12.5597 57.3314 12.475 56.9963 12.3055C56.6612 12.136 56.3916 11.9319 56.1875 11.6931C55.9872 11.4505 55.8312 11.2213 55.7195 11.0056H55.5982V12.4037H53.5415ZM55.5924 7.9668C55.5924 8.54067 55.6733 9.04329 55.8351 9.47465C56.0007 9.90602 56.2375 10.243 56.5457 10.4857C56.8576 10.7245 57.2351 10.8439 57.678 10.8439C58.1402 10.8439 58.5272 10.7206 58.8392 10.4741C59.1512 10.2238 59.3861 9.88291 59.544 9.45154C59.7058 9.01632 59.7867 8.52141 59.7867 7.9668C59.7867 7.41604 59.7077 6.9269 59.5498 6.49938C59.3919 6.07187 59.157 5.73679 58.845 5.49415C58.533 5.25151 58.144 5.13018 57.678 5.13018C57.2312 5.13018 56.8518 5.24765 56.5399 5.48259C56.2279 5.71753 55.991 6.04684 55.8293 6.4705C55.6714 6.89416 55.5924 7.39293 55.5924 7.9668Z" fill="#101010"/>
<path d="M39.8247 12.4037V3.52991H41.8236V5.03776H41.9276C42.1125 4.52937 42.4187 4.13267 42.8462 3.84766C43.2737 3.5588 43.784 3.41437 44.3772 3.41437C44.978 3.41437 45.4844 3.56072 45.8966 3.85344C46.3125 4.1423 46.6052 4.53707 46.7747 5.03776H46.8671C47.0636 4.54478 47.3948 4.15193 47.8608 3.85921C48.3307 3.56265 48.8872 3.41437 49.5304 3.41437C50.3469 3.41437 51.0132 3.67242 51.5293 4.18851C52.0454 4.70461 52.3035 5.45758 52.3035 6.44741V12.4037H50.2064V6.77093C50.2064 6.22017 50.06 5.81769 49.7673 5.56349C49.4746 5.30544 49.1164 5.17642 48.6927 5.17642C48.1882 5.17642 47.7934 5.33433 47.5084 5.65015C47.2272 5.96212 47.0867 6.36845 47.0867 6.86914V12.4037H45.0358V6.68427C45.0358 6.22595 44.8971 5.86006 44.6198 5.5866C44.3463 5.31315 43.9882 5.17642 43.5452 5.17642C43.2448 5.17642 42.9714 5.25345 42.7249 5.40751C42.4784 5.55771 42.2819 5.77147 42.1356 6.04878C41.9892 6.32223 41.9161 6.64191 41.9161 7.0078V12.4037H39.8247Z" fill="#101010"/>
<path d="M31.0112 12.4037V0.57196H38.7065V2.36868H33.1546V5.58081H38.3079V7.37752H33.1546V10.607H38.7527V12.4037H31.0112Z" fill="#101010"/>
<path d="M23.1208 12.577C22.2311 12.577 21.4628 12.3922 20.8157 12.0224C20.1725 11.6488 19.6776 11.1212 19.331 10.4395C18.9844 9.7539 18.811 8.94701 18.811 8.01881C18.811 7.10601 18.9844 6.3049 19.331 5.61549C19.6815 4.92222 20.1706 4.38301 20.7984 3.99787C21.4262 3.60887 22.1637 3.41437 23.0111 3.41437C23.558 3.41437 24.0741 3.50295 24.5594 3.68012C25.0485 3.85344 25.4799 4.12304 25.8535 4.48893C26.2309 4.85482 26.5275 5.32085 26.7432 5.88702C26.9588 6.44933 27.0667 7.11949 27.0667 7.89749V8.53876H19.7932V7.12912H25.062C25.0581 6.72856 24.9715 6.3723 24.802 6.06033C24.6325 5.74451 24.3957 5.49609 24.0914 5.31507C23.791 5.13405 23.4405 5.04354 23.04 5.04354C22.6124 5.04354 22.2369 5.14753 21.9134 5.35551C21.5899 5.55964 21.3376 5.82924 21.1566 6.16432C20.9794 6.49555 20.8889 6.85951 20.8851 7.25622V8.48676C20.8851 9.00286 20.9794 9.44578 21.1681 9.81552C21.3569 10.1814 21.6207 10.4626 21.9596 10.659C22.2985 10.8516 22.6952 10.9479 23.1497 10.9479C23.454 10.9479 23.7294 10.9055 23.9759 10.8208C24.2224 10.7322 24.4361 10.6031 24.6171 10.4337C24.7982 10.2642 24.9349 10.0543 25.0273 9.80397L26.98 10.0235C26.8568 10.5396 26.6218 10.9902 26.2752 11.3754C25.9324 11.7567 25.4933 12.0532 24.958 12.2651C24.4226 12.473 23.8103 12.577 23.1208 12.577Z" fill="#101010"/>
<path d="M12.2823 7.20421V12.4037H10.1909V0.57196H12.2361V5.03775H12.34C12.548 4.53706 12.8696 4.14228 13.3048 3.85342C13.7439 3.56071 14.3024 3.41435 14.9802 3.41435C15.5965 3.41435 16.1337 3.54338 16.5921 3.80142C17.0504 4.05947 17.4047 4.43692 17.6551 4.93376C17.9093 5.4306 18.0364 6.03721 18.0364 6.75358V12.4037H15.945V7.07711C15.945 6.48013 15.791 6.01602 15.4828 5.6848C15.1786 5.34972 14.7511 5.18218 14.2003 5.18218C13.8306 5.18218 13.4993 5.26306 13.2066 5.42482C12.9178 5.58273 12.6905 5.8119 12.5249 6.11231C12.3632 6.41273 12.2823 6.77669 12.2823 7.20421Z" fill="#101010"/>
<path d="M0 2.36868V0.57196H9.43997V2.36868H5.78299V12.4037H3.65698V2.36868H0Z" fill="#101010"/>
</svg>
